# xmcd CD database file
#
# Track frame offsets:
#	150
#	19164
#	39691
#	59059
#	80406
#	101990
#	124366
#	143858
#	162846
#	185489
#	209525
#	233833
#	253089
#	275721
#	295012
#
# Disc length: 4208 seconds
#
# Revision: 0
# Processed by: cddbd v1.5.2PL0 Copyright (c) Steve Scherf et al.
# Submitted via: CDex 1.70beta2
#
DISCID=ec106e0f
DTITLE=Chicago - Chicago XXXII
DYEAR=2008
DGENRE=Jazz
TTITLE0=Chicago - Stone Of Sisyphus
TTITLE1=Chicago - Bigger Than Elvis
TTITLE2=Chicago - All The Years
TTITLE3=Chicago - Mah-Jong
TTITLE4=Chicago - Sleeping In The Middle Of The Bed
TTITLE5=Chicago - Let s Take A Lifetime
TTITLE6=Chicago - The Pull
TTITLE7=Chicago - Here With Me (A Candle For The Dark)
TTITLE8=Chicago - Plaid
TTITLE9=Chicago - Cry For The Lost
TTITLE10=Track11 - The Show Must Go On
TTITLE11=Chicago - Love Is Forever (Demo)
TTITLE12=Chicago - Mah-Jong (Demo)
TTITLE13=Chicago - Let s Take A Lifetime (Demo)
TTITLE14=Chicago - Stone Of Sisyphus [b]
EXTD=YEAR: 2008
EXTT0=
EXTT1=
EXTT2=
EXTT3=
EXTT4=
EXTT5=
EXTT6=
EXTT7=
EXTT8=
EXTT9=
EXTT10=
EXTT11=
EXTT12=
EXTT13=
EXTT14=
PLAYORDER=
